<?xml version="1.0" encoding="UTF-8" standalone="no"?>
<svg
   viewBox="0 0 228.66 39.08"
   version="1.1"
   id="svg32"
   sodipodi:docname="navbar-logo.svg"
   inkscape:version="1.2 (dc2aeda, 2022-05-15)"
   xmlns:inkscape="http://www.inkscape.org/namespaces/inkscape"
   xmlns:sodipodi="http://sodipodi.sourceforge.net/DTD/sodipodi-0.dtd"
   xmlns="http://www.w3.org/2000/svg"
   xmlns:svg="http://www.w3.org/2000/svg">
  <defs
     id="defs36" />
  <sodipodi:namedview
     id="namedview34"
     pagecolor="#ffffff"
     bordercolor="#000000"
     borderopacity="0.25"
     inkscape:showpageshadow="2"
     inkscape:pageopacity="0.0"
     inkscape:pagecheckerboard="0"
     inkscape:deskcolor="#d1d1d1"
     showgrid="false"
     inkscape:zoom="2.6964653"
     inkscape:cx="117.56131"
     inkscape:cy="19.655361"
     inkscape:window-width="1390"
     inkscape:window-height="1036"
     inkscape:window-x="0"
     inkscape:window-y="22"
     inkscape:window-maximized="0"
     inkscape:current-layer="svg32" />
  <style
     id="style2">.cls-1{fill:#fed136;}</style>
  <path
     style="fill:#fed334;stroke:#fed234;stroke-width:1;fill-opacity:1;stroke-opacity:1;stroke-dasharray:none"
     d="M 20.109077,6.1369653 C 19.776696,5.9985906 19.45802,5.8214525 19.136019,5.6604501 18.992735,5.5888108 18.81515,5.4618647 18.649488,5.4623518 c -0.213424,7.436e-4 -0.390642,0.2543735 -0.527072,0.3908067 -0.170369,0.1703641 -0.463056,0.3736931 -0.542522,0.6081602 -0.05279,0.1556511 0.04034,0.3144625 0.113769,0.4459871 0.171907,0.3078114 0.305257,0.6451369 0.509843,0.9325155 -0.515561,-0.1999641 -1.027228,-0.4108763 -1.540678,-0.616272 -0.16611,-0.066453 -0.423282,-0.2286288 -0.606542,-0.1683805 -0.147051,0.048337 -0.227168,0.2156568 -0.301607,0.3386674 -0.155973,0.2577785 -0.312311,0.5150729 -0.472381,0.7703374 -0.219222,0.3495327 -0.429808,0.7044552 -0.648705,1.0541472 -0.09346,0.149245 -0.264226,0.342397 -0.26666,0.527076 -0.0031,0.240143 0.31215,0.4387282 0.471407,0.5792122 0.419591,0.370088 0.806911,0.779177 1.216326,1.160577 0.149811,0.139554 0.359868,0.394778 0.567618,0.434956 0.206045,0.03986 0.465688,-0.133469 0.648707,-0.211558 0.542155,-0.231303 1.076527,-0.482637 1.621765,-0.70632 -0.205437,0.348356 -0.401631,0.702792 -0.602081,1.05415 -0.07027,0.123212 -0.2086,0.29427 -0.175718,0.445945 0.03422,0.157716 0.214803,0.270712 0.331813,0.364897 0.269579,0.217072 0.539441,0.433944 0.810883,0.648625 0.109309,0.08644 0.25255,0.231588 0.404833,0.216587 0.216548,-0.02137 0.396969,-0.350546 0.527681,-0.500274 -0.05012,0.61335 -0.295362,1.255691 -0.518843,1.824484 -0.569442,1.449373 -1.419975,2.749788 -2.521966,3.851696 -0.472137,0.472135 -0.988223,0.907334 -1.540677,1.283461 -0.147986,0.100761 -0.52375,0.264186 -0.452029,0.496223 0.09662,0.312599 0.470677,0.01925 0.614204,-0.07688 0.567538,-0.379984 1.070528,-0.817816 1.581222,-1.268429 1.488335,-1.313175 2.51925,-3.250012 3.05788,-5.137502 0.124349,-0.435769 0.224898,-0.889256 0.289932,-1.337957 0.0201,-0.138784 0.08571,-0.394819 -0.0086,-0.514143 -0.106728,-0.134888 -0.266877,-0.06329 -0.367791,0.03362 -0.236091,0.226764 -0.524237,0.54836 -0.660304,0.845429 -0.405359,-0.206937 -0.701496,-0.583877 -1.094691,-0.810883 0.33315,-0.466501 0.590402,-1.002415 0.874901,-1.500135 0.07549,-0.132092 0.272213,-0.401346 0.08522,-0.525899 -0.204749,-0.13643 -0.568309,0.103548 -0.757406,0.184476 -0.460906,0.197247 -0.917312,0.404995 -1.378499,0.601758 -0.180787,0.07715 -0.411605,0.233251 -0.608164,0.249589 -0.137365,0.01148 -0.233939,-0.09869 -0.324351,-0.185893 -0.213586,-0.205884 -0.438646,-0.398185 -0.648705,-0.607838 -0.223722,-0.223279 -0.466825,-0.424458 -0.68917,-0.6487472 -0.09764,-0.09844 -0.239332,-0.209979 -0.201746,-0.364858 0.04468,-0.18395 0.207586,-0.368101 0.306109,-0.527075 0.225628,-0.3641663 0.449754,-0.7294285 0.673558,-1.0946908 0.09722,-0.1586497 0.208963,-0.4745706 0.438932,-0.4361748 0.203732,0.033982 0.416226,0.1569462 0.607552,0.2334536 l 1.175782,0.4703125 c 0.172716,0.069087 0.508019,0.2775234 0.664153,0.084367 0.126166,-0.156088 -0.04218,-0.3761219 -0.119938,-0.5141335 -0.17215,-0.305662 -0.32484,-0.6235284 -0.491193,-0.9325155 -0.06872,-0.1276346 -0.155931,-0.2649578 -0.07208,-0.4054425 0.09734,-0.1631487 0.424173,-0.5404928 0.627178,-0.5445479 0.127388,-0.00246 0.258508,0.1036768 0.364896,0.1619731 0.251738,0.137891 0.513369,0.2640655 0.770339,0.3925889 0.182571,0.091312 0.640354,0.4339858 0.820694,0.2154929 C 20.834874,6.5477649 20.593837,6.1912228 20.522725,6.01534 20.330991,5.5412991 20.137514,5.0660791 19.935563,4.5962947 19.864941,4.43205 19.696637,4.1701378 19.713341,3.9881321 c 0.0234,-0.2554684 0.430053,-0.5552506 0.596933,-0.729795 0.391087,-0.4091696 0.782905,-0.8296531 1.154007,-1.2568673 0.1625,-0.1870304 0.354356,-0.3459636 0.46934,-0.567617 0.238074,0.1678102 0.413914,0.3972903 0.61181,0.6083219 0.378195,0.4032938 0.746012,0.8181005 1.130169,1.2155559 0.164202,0.1699601 0.57382,0.4858804 0.588985,0.7304015 0.01159,0.1865045 -0.153015,0.438323 -0.223116,0.6081626 -0.195422,0.473597 -0.392265,0.946625 -0.590525,1.4190453 -0.07622,0.1816791 -0.331165,0.5792949 -0.12589,0.7452434 0.167044,0.1350515 0.407106,-0.063653 0.554684,-0.1415797 0.476274,-0.2514144 0.962114,-0.5181966 1.45959,-0.725296 0.135176,0.2474027 0.401673,0.5116673 0.648707,0.6487071 -0.2341,0.444932 -0.47457,0.8882398 -0.699263,1.337958 -0.06811,0.1363488 -0.235888,0.3993582 -0.05348,0.5192083 0.177705,0.1167681 0.503396,-0.087014 0.671652,-0.1543103 L 27.082727,7.7749567 C 27.26027,7.7039257 27.4593,7.587966 27.648721,7.5581276 c 0.208846,-0.03288 0.318678,0.2591573 0.409092,0.403333 0.269942,0.4303746 0.536967,0.8631852 0.800625,1.2974122 0.07571,0.124714 0.259968,0.330962 0.20637,0.48653 -0.09337,0.2709572 -0.485639,0.4959782 -0.684668,0.6898592 -0.253318,0.246711 -0.518639,0.481137 -0.770338,0.729348 -0.09922,0.09783 -0.215817,0.258226 -0.364898,0.275012 -0.194978,0.02194 -0.475704,-0.165057 -0.648705,-0.243995 -0.456284,-0.208155 -0.917676,-0.406942 -1.378502,-0.604879 -0.191531,-0.08231 -0.507855,-0.299903 -0.723793,-0.212127 -0.296663,0.120579 0.07537,0.590365 0.161851,0.745282 0.158851,0.284662 0.316162,0.570295 0.481298,0.851427 0.06467,0.110083 0.202034,0.266498 0.19206,0.401834 -0.0079,0.106511 -0.118146,0.177504 -0.192707,0.238765 -0.173447,0.142472 -0.348558,0.284985 -0.526871,0.421294 -0.07643,0.05842 -0.172598,0.14758 -0.276918,0.109145 -0.234223,-0.08627 -0.4487,-0.499869 -0.61181,-0.682723 -0.141701,-0.158895 -0.456081,-0.299338 -0.47688,0.03896 -0.03507,0.570053 0.191894,1.241339 0.346326,1.78374 0.511669,1.797525 1.482701,3.497784 2.803266,4.824757 0.524316,0.526872 1.093231,1.004479 1.702812,1.430397 0.145959,0.102003 0.543657,0.433862 0.677576,0.144862 0.0971,-0.209613 -0.219629,-0.362991 -0.353222,-0.453976 -0.505383,-0.344213 -0.986561,-0.729506 -1.419046,-1.161828 -1.13333,-1.132888 -2.059196,-2.396039 -2.657709,-3.892242 -0.259927,-0.649841 -0.411402,-1.312535 -0.585823,-1.986662 0.132379,0.163068 0.309311,0.479393 0.527237,0.528857 0.15273,0.03466 0.296053,-0.102576 0.405281,-0.188447 0.286726,-0.225467 0.566928,-0.45892 0.851424,-0.687104 0.114216,-0.09159 0.282432,-0.184679 0.307205,-0.343167 0.02644,-0.169067 -0.113044,-0.34811 -0.191652,-0.485919 -0.200409,-0.351275 -0.412092,-0.697198 -0.602081,-1.054147 0.519288,0.30193 1.111477,0.508055 1.662311,0.746984 0.196071,0.08506 0.467431,0.273591 0.68925,0.195343 0.178311,-0.06288 0.315351,-0.245578 0.445823,-0.3741 0.276916,-0.272823 0.565347,-0.536928 0.847982,-0.804033 0.203811,-0.192631 0.413792,-0.375768 0.611728,-0.575083 0.09362,-0.09426 0.215532,-0.1939642 0.258631,-0.3243552 0.07164,-0.216629 -0.153541,-0.477611 -0.260618,-0.648707 C 28.990977,8.6671208 28.675261,8.1528598 28.363962,7.6370972 28.258505,7.4623513 28.115425,7.093116 27.891869,7.050746 27.693972,7.01324 27.424029,7.1843409 27.244904,7.2559813 26.758455,7.4505937 26.273751,7.6503946 25.785314,7.8398178 25.962209,7.5367494 26.109424,7.2155177 26.2776,6.9073023 26.34904,6.7763444 26.452549,6.6164792 26.402152,6.4613153 26.325612,6.2254699 26.036284,6.0230344 25.866403,5.853155 25.727945,5.714737 25.553808,5.4668506 25.339328,5.458983 c -0.15808,-0.00585 -0.311055,0.1094261 -0.445985,0.1773407 -0.35164,0.1769356 -0.714184,0.342761 -1.054147,0.5411836 0.22214,-0.541426 0.452471,-1.0796097 0.673153,-1.6217677 0.0791,-0.1942857 0.266538,-0.4727845 0.234264,-0.6892504 C 24.716329,3.6632035 24.477117,3.4868336 24.349077,3.3394167 23.953206,2.8836991 23.531021,2.433335 23.109401,2.0014592 22.865689,1.7518282 22.632237,1.4911303 22.391771,1.2380133 22.287086,1.1278143 22.179804,0.96705674 22.0141,0.95570424 21.809596,0.94166424 21.670569,1.1349091 21.551533,1.2716644 21.322133,1.5351608 21.077896,1.7919686 20.835278,2.0435845 20.451285,2.4418889 20.09243,2.864644 19.703571,3.2583699 19.548124,3.415761 19.271613,3.6357141 19.233783,3.8664892 c -0.03589,0.2191826 0.145515,0.4937059 0.226199,0.6892504 0.217275,0.5264261 0.443228,1.0502574 0.64915,1.5812221 z"
     id="path236" />
  <path
     style="fill:#fed334;stroke:none;stroke-width:0.04062544;fill-opacity:1;stroke-dasharray:none"
     d="m 20.190166,13.191649 0.04055,0.04055 z"
     id="path238" />
  <path
     style="fill:#fed334;stroke:#fed234;stroke-width:1.00200105;fill-opacity:1;stroke-dasharray:none;stroke-opacity:1"
     d="m 28.676785,17.652683 c -0.159905,0.105375 -0.07269,0.315963 0.03366,0.419874 0.358897,0.350584 0.774676,0.639462 1.129074,0.997995 1.464251,1.481277 2.464434,3.365811 2.923882,5.392371 0.860021,3.793512 -0.542686,7.900474 -3.41025,10.494045 -1.215149,1.09915 -2.660304,1.888141 -4.216591,2.385207 -1.108316,0.35355 -2.249838,0.459771 -3.405711,0.459771 -1.101259,0 -2.200209,-0.21975 -3.24353,-0.567612 -1.08691,-0.362472 -2.124355,-0.909005 -3.040816,-1.596637 -1.149426,-0.861967 -2.118229,-1.926125 -2.87604,-3.147033 -2.147502,-3.459875 -2.085915,-7.92764 -0.0026,-11.392905 0.409982,-0.68191 0.899878,-1.338974 1.459752,-1.905573 0.336355,-0.340412 0.78988,-0.640314 1.081597,-1.015192 0.164851,-0.211841 0.0046,-0.519084 -0.270877,-0.396558 -0.296296,0.131812 -0.582822,0.456771 -0.810881,0.682114 -0.536401,0.529992 -1.026338,1.089061 -1.465266,1.702696 -2.285515,3.194959 -2.6872248,7.553531 -1.152793,11.149636 0.491925,1.152791 1.176307,2.231552 2.01679,3.162445 0.764296,0.846562 1.650023,1.584059 2.628475,2.171139 4.022385,2.413594 9.256554,2.113976 12.974128,-0.747637 2.631316,-2.025336 4.23046,-5.141031 4.45625,-8.437639 0.09507,-1.388516 -0.112189,-2.807641 -0.512115,-4.135506 -0.528086,-1.753371 -1.540028,-3.354052 -2.81048,-4.662694 -0.309512,-0.318799 -0.659005,-0.621097 -1.012023,-0.891085 -0.123617,-0.09454 -0.315513,-0.225464 -0.473637,-0.121222 m -8.48665,10.783565 c -0.08827,-0.407466 0.04014,-0.875914 -0.01159,-1.297409 -0.148554,-1.20956 -0.664315,-2.2976 -1.529122,-3.162406 -0.25863,-0.258674 -0.546495,-0.496506 -0.851388,-0.699425 -0.119281,-0.07939 -0.290377,-0.187114 -0.439986,-0.126942 -0.256643,0.103185 -0.01416,0.412005 0.07396,0.542514 0.395791,0.586071 0.672342,1.314403 0.689777,2.027207 0.01775,0.72368 -0.130432,1.419132 -0.541061,2.027209 -0.252874,0.374506 -0.594094,0.687307 -0.860144,1.054148 -0.43508,0.599897 -0.813357,1.243249 -1.057433,1.946126 -0.156461,0.450564 -0.268522,0.904823 -0.326705,1.3785 -0.0173,0.140929 -0.0624,0.434225 0.115878,0.492566 0.168542,0.05512 0.236941,-0.119479 0.25997,-0.249468 0.07103,-0.400246 0.109392,-0.783513 0.234669,-1.175613 0.260011,-0.813765 0.677371,-1.553775 1.197797,-2.229932 0.52902,-0.68722 1.095623,-1.23457 1.306089,-2.108297 0.121917,-0.506069 0.133266,-1.028078 0.05964,-1.540679 -0.02205,-0.153622 -0.145555,-0.467794 0.02822,-0.572075 0.116885,-0.07011 0.224087,0.04586 0.294635,0.127023 0.206856,0.237911 0.355977,0.529425 0.495326,0.809955 0.478138,0.962436 0.545565,2.038514 0.334248,3.081356 -0.03925,0.193713 -0.184558,0.686774 0.202921,0.586544 0.24586,-0.06362 0.458799,-0.346484 0.593528,-0.546006 0.414887,-0.614282 0.541668,-1.38166 0.541668,-2.10829 0,-0.421095 0.0074,-0.839593 -0.05834,-1.256872 -0.08872,-0.563688 -0.263739,-1.133611 -0.302906,-1.702851 -0.09357,-1.358555 0.457662,-2.771885 1.374853,-3.770609 8e-5,0.854829 0.348517,1.636445 0.793692,2.351558 0.615988,0.989405 1.38061,1.854452 2.159139,2.716462 1.186484,1.313673 2.15573,2.801683 2.781083,4.459856 0.215776,0.572239 0.400375,1.213849 0.462407,1.824484 0.0362,0.356102 -0.02923,0.792563 0.06038,1.134469 0.0488,0.186337 0.276795,0.258672 0.385292,0.07587 0.125727,-0.211849 0.01921,-0.536282 0.0089,-0.764338 -0.038,-0.837202 -0.24882,-1.641355 -0.515156,-2.432656 -0.613231,-1.821687 -1.786009,-3.412961 -3.061203,-4.824751 -0.753392,-0.834115 -1.494338,-1.695759 -2.054779,-2.675916 -0.253605,-0.443594 -0.515031,-0.942491 -0.566766,-1.459589 -0.03828,-0.38245 -7.44e-4,-0.773862 0.227777,-1.094693 0.120903,-0.169636 0.495167,-0.429769 0.331732,-0.676313 -0.08859,-0.133717 -0.259971,-0.07055 -0.363721,0.0047 -0.232886,0.168703 -0.444122,0.414241 -0.631477,0.631107 -0.778732,0.901419 -1.410854,1.873789 -1.700826,3.040812 -0.29804,1.199625 0.102015,2.26127 0.217114,3.446252 0.09366,0.9639 0.01089,1.817433 -0.358006,2.716461 z"
     id="path240" />
  <g
     aria-label="Sacre "
     id="text1066"
     style="font-size:33.0529px;fill:#fed334;stroke:#fed234;stroke-width:2.75441">
    <path
       d="m 57.995325,25.691469 q 0,1.404102 -0.661704,2.775927 -0.645564,1.371824 -1.823719,2.324031 -1.291129,1.032904 -3.018014,1.613912 -1.710746,0.581007 -4.131612,0.581007 -2.598397,0 -4.680342,-0.484173 Q 41.614128,32.018 39.467626,31.065792 v -4.002499 h 0.225947 q 1.82372,1.517076 4.212308,2.340171 2.388589,0.823095 4.486673,0.823095 2.969596,0 4.615786,-1.113599 1.662328,-1.113599 1.662328,-2.969596 0,-1.597772 -0.790816,-2.356311 -0.774678,-0.758538 -2.37245,-1.178155 -1.210433,-0.322782 -2.630675,-0.53259 -1.404102,-0.209809 -2.985735,-0.532591 -3.195544,-0.677843 -4.744899,-2.307893 -1.533215,-1.646189 -1.533215,-4.276864 0,-3.018014 2.549979,-4.938568 2.54998,-1.9366931 6.471784,-1.9366931 2.53384,0 4.648063,0.4841733 2.114224,0.4841734 3.744274,1.1942942 v 3.7765516 h -0.225947 q -1.371825,-1.162016 -3.615161,-1.920554 -2.227197,-0.774677 -4.567368,-0.774677 -2.566119,0 -4.131613,1.065181 -1.549354,1.065181 -1.549354,2.743649 0,1.500937 0.774677,2.35631 0.774677,0.855373 2.72751,1.307268 1.032903,0.225948 2.937318,0.54873 1.904415,0.322782 3.227822,0.661703 2.679092,0.710121 4.034777,2.146502 1.355686,1.436381 1.355686,4.018639 z"
       id="path3337" />
    <path
       d="M 76.894224,32.550591 H 73.87621 v -1.920555 q -0.403478,0.274365 -1.09746,0.774678 -0.677842,0.484173 -1.323407,0.774677 -0.758538,0.3712 -1.743024,0.613286 -0.984485,0.258226 -2.307892,0.258226 -2.437006,0 -4.131613,-1.613911 -1.694606,-1.613911 -1.694606,-4.115473 0,-2.049667 0.871512,-3.308518 0.887651,-1.27499 2.517701,-2.00125 1.646189,-0.72626 3.954082,-0.984485 2.307893,-0.258226 4.954707,-0.387339 v -0.468034 q 0,-1.032903 -0.3712,-1.710746 -0.35506,-0.677843 -1.032903,-1.065181 -0.645564,-0.3712 -1.549354,-0.500313 -0.90379,-0.129113 -1.888276,-0.129113 -1.194294,0 -2.662953,0.322783 -1.46866,0.306643 -3.034153,0.90379 H 63.17598 v -3.08257 q 0.887651,-0.242087 2.566118,-0.532591 1.678468,-0.290504 3.308518,-0.290504 1.904415,0 3.308518,0.322782 1.420241,0.306643 2.453144,1.065182 1.016764,0.742399 1.549355,1.920554 0.532591,1.178155 0.532591,2.921179 z M 73.87621,28.112335 v -5.019263 q -1.387964,0.0807 -3.276239,0.242086 -1.872137,0.161391 -2.969597,0.468035 -1.307268,0.371199 -2.114223,1.162016 -0.806956,0.774677 -0.806956,2.146501 0,1.549355 0.936069,2.340171 0.936068,0.774678 2.856622,0.774678 1.597772,0 2.921179,-0.613287 1.323407,-0.629425 2.453145,-1.500937 z"
       id="path3339" />
    <path
       d="m 96.067488,31.420853 q -1.517077,0.72626 -2.888901,1.129738 -1.355685,0.403477 -2.888901,0.403477 -1.952832,0 -3.582882,-0.564869 -1.630051,-0.581008 -2.792067,-1.743024 -1.178155,-1.162015 -1.823719,-2.937318 -0.645565,-1.775302 -0.645565,-4.147751 0,-4.422116 2.420867,-6.939818 2.437006,-2.517701 6.423366,-2.517701 1.549355,0 3.034153,0.435756 1.500937,0.435756 2.743649,1.065181 v 3.373075 h -0.161391 q -1.387964,-1.081321 -2.872762,-1.662329 -1.468659,-0.581008 -2.872762,-0.581008 -2.582258,0 -4.083195,1.743024 -1.484798,1.726885 -1.484798,5.08382 0,3.2601 1.45252,5.019263 1.468659,1.743024 4.115473,1.743024 0.919929,0 1.872137,-0.242086 0.952208,-0.242087 1.710746,-0.629426 0.661703,-0.338921 1.242711,-0.710121 0.581008,-0.387338 0.91993,-0.661703 h 0.161391 z"
       id="path3341" />
    <path
       d="m 111.20597,17.831722 h -0.16139 q -0.67784,-0.161391 -1.32341,-0.225948 -0.62942,-0.08069 -1.50093,-0.08069 -1.40411,0 -2.71138,0.629425 -1.30726,0.613286 -2.5177,1.597772 V 32.550591 H 99.957011 V 14.523204 h 3.034149 v 2.662953 q 1.80758,-1.45252 3.17941,-2.049667 1.38796,-0.613286 2.82434,-0.613286 0.79082,0 1.14588,0.04842 0.35506,0.03228 1.06518,0.145252 z"
       id="path3343" />
    <path
       d="m 129.15266,23.85161 h -13.28249 q 0,1.662328 0.50032,2.90504 0.50031,1.226572 1.37182,2.017389 0.83923,0.774677 1.98511,1.162016 1.16202,0.387338 2.54998,0.387338 1.83986,0 3.69586,-0.72626 1.87213,-0.742399 2.66295,-1.45252 h 0.16139 v 3.308518 q -1.53321,0.645564 -3.13099,1.08132 -1.59777,0.435756 -3.35693,0.435756 -4.48667,0 -7.00437,-2.420866 -2.51771,-2.437006 -2.51771,-6.90754 0,-4.422116 2.40473,-7.020513 2.42087,-2.598396 6.35881,-2.598396 3.64744,0 5.61641,2.130362 1.98511,2.130363 1.98511,6.052167 z m -2.95345,-2.324032 q -0.0161,-2.388588 -1.21044,-3.695856 -1.17815,-1.307268 -3.59902,-1.307268 -2.43701,0 -3.88953,1.436381 -1.43638,1.43638 -1.63005,3.566743 z"
       id="path3345" />
  </g>
  <g
     aria-label="Cœur"
     id="text1130"
     style="font-size:33.0529px;fill:#fed334;stroke:#fed234;stroke-width:2.75441">
    <path
       d="m 154.77361,31.549273 q -0.88765,0.387339 -1.61391,0.72626 -0.71012,0.338922 -1.87214,0.710121 -0.98449,0.306643 -2.1465,0.516452 -1.14588,0.225947 -2.53384,0.225947 -2.61454,0 -4.76104,-0.72626 -2.13036,-0.742399 -3.71199,-2.307892 -1.54936,-1.533216 -2.42087,-3.889526 -0.87151,-2.372449 -0.87151,-5.503437 0,-2.969596 0.83923,-5.309767 0.83923,-2.340171 2.42087,-3.954082 1.53321,-1.565494 3.69585,-2.3885886 2.17878,-0.8230946 4.8256,-0.8230946 1.93669,0 3.85725,0.4680342 1.93669,0.4680342 4.293,1.646189 v 3.792691 h -0.24209 q -1.98511,-1.662328 -3.93794,-2.420866 -1.95283,-0.758539 -4.18003,-0.758539 -1.82372,0 -3.29238,0.597148 -1.45252,0.581008 -2.5984,1.823719 -1.11359,1.210433 -1.74302,3.066431 -0.61329,1.839859 -0.61329,4.260725 0,2.533841 0.67785,4.35756 0.69398,1.82372 1.7753,2.969596 1.12974,1.194295 2.63067,1.775303 1.51708,0.564868 3.19555,0.564868 2.30789,0 4.32528,-0.790816 2.01739,-0.790816 3.77655,-2.372449 h 0.22595 z"
       id="path3348" />
    <path
       d="m 186.89044,24.593317 h -12.97585 q 0,1.678467 0.48418,2.90504 0.48417,1.226572 1.3234,2.017388 0.83924,0.790817 1.96898,1.178156 1.14587,0.371199 2.46928,0.371199 1.75916,0 3.40535,-0.629425 1.66233,-0.645565 2.79207,-1.549355 h 0.19367 v 3.308518 q -1.58164,0.677842 -3.13099,1.097459 -1.53322,0.419617 -3.22782,0.419617 -2.71137,0 -4.58351,-0.984486 -1.87214,-0.984485 -3.06643,-2.662953 -1.1136,1.791442 -2.80821,2.759788 -1.67846,0.968347 -3.79269,0.968347 -3.76041,0 -5.97147,-2.54998 -2.19492,-2.549979 -2.19492,-6.955956 0,-4.470534 2.24334,-6.988235 2.25947,-2.533841 5.92305,-2.533841 2.25948,0 3.87339,0.984486 1.61391,0.968347 2.71137,2.808205 1.14588,-1.710745 2.87276,-2.743648 1.74303,-1.049043 4.05092,-1.049043 3.6313,0 5.53571,2.162641 1.90442,2.162641 1.90442,6.019889 z m -2.95346,-2.324032 q -0.0484,-2.501562 -1.22657,-3.744274 -1.16202,-1.25885 -3.43763,-1.25885 -2.24334,0 -3.66358,1.323407 -1.4041,1.323407 -1.66233,3.679717 z m -12.9597,2.017389 q 0,-3.469909 -1.32341,-5.180655 -1.32341,-1.726885 -3.69586,-1.726885 -2.46928,0 -3.76041,1.807581 -1.29113,1.80758 -1.29113,5.099959 0,3.421491 1.33955,5.164515 1.35568,1.726885 3.71199,1.726885 2.35631,0 3.67972,-1.710746 1.33955,-1.726885 1.33955,-5.180654 z"
       id="path3350" />
    <path
       d="m 206.4349,33.292297 h -3.03415 v -2.001249 q -1.53322,1.210433 -2.93732,1.855997 -1.4041,0.645565 -3.09871,0.645565 -2.84048,0 -4.42212,-1.726885 -1.58163,-1.743024 -1.58163,-5.099959 V 15.264911 h 3.03415 v 10.264474 q 0,1.371825 0.12912,2.35631 0.12911,0.968347 0.54873,1.662329 0.43575,0.710121 1.12973,1.032903 0.69399,0.322782 2.01739,0.322782 1.17816,0 2.56612,-0.613286 1.4041,-0.613286 2.61454,-1.565494 V 15.264911 h 3.03415 z"
       id="path3352" />
    <path
       d="m 223.65533,18.573429 h -0.16139 q -0.67784,-0.161392 -1.3234,-0.225948 -0.62943,-0.0807 -1.50094,-0.0807 -1.4041,0 -2.71137,0.629426 -1.30727,0.613286 -2.5177,1.597772 v 12.798314 h -3.03416 V 15.264911 h 3.03416 v 2.662953 q 1.80758,-1.45252 3.1794,-2.049667 1.38797,-0.613286 2.82435,-0.613286 0.79081,0 1.14587,0.04842 0.35506,0.03228 1.06518,0.145252 z"
       id="path3354" />
  </g>
</svg>
